<?xml version="1.0" encoding="utf-8"?>
<!-- Generator: Adobe Illustrator 27.5.0, SVG Export Plug-In . SVG Version: 6.00 Build 0)  -->
<svg version="1.1" xmlns="http://www.w3.org/2000/svg" xmlns:xlink="http://www.w3.org/1999/xlink" x="0px" y="0px"
	 viewBox="0 0 750 500" style="enable-background:new 0 0 750 500;" xml:space="preserve">
<g id="BACKGROUND">
	<rect x="0.369" style="fill:#FCFCFC;" width="750" height="500"/>
</g>
<g id="OBEJCTS">
	<g>
		<path style="fill:#DEEFBD;" d="M694.724,458.255H48.581c0,0,20.935-90.654,69.307-90.654s95.977-5.505,91.612-30.221
			c-4.365-24.716-59.102-21.353-65.044-69.576c-5.942-48.222,53.312-96.031,101.866-91.913s102.41-33.539,112.587-52.807
			c10.177-19.267,51.456-65.629,103.528-19.166c52.072,46.463,85.008,85.944,112.071,64.63
			c27.064-21.314,108.826,5.11,100.474,54.86c-8.352,49.75-112.158,47.557-121.486,95.533
			C544.169,366.919,694.724,365.899,694.724,458.255z"/>
		<g>
			<g>
				<path style="fill:#1B6D65;" d="M114.104,381.869c-4.73-0.397-9.298,8.023-10.201,18.806c-0.792,9.447,1.491,17.572,5.249,19.708
					c-0.862,6.312-2.169,14.079-4.069,21.401c-2.847-8.547-3.541-32.378-3.673-48.284c4.128-1.321,7.876-8.975,8.77-18.515
					c1.009-10.773-2.004-19.866-6.73-20.309c-4.726-0.443-9.375,7.932-10.385,18.706c-1.005,10.727,1.979,19.785,6.67,20.3
					c0.143,17.337,0.977,43.912,4.643,50.696c-0.79,2.781-1.672,5.461-2.653,7.929c-0.169,0.427,0.039,0.911,0.466,1.08
					c0.101,0.04,0.205,0.059,0.307,0.059c0.331,0,0.644-0.198,0.773-0.524c1.038-2.611,1.965-5.453,2.792-8.399
					c0.008-0.026,0.017-0.052,0.022-0.079c2.217-7.918,3.711-16.578,4.671-23.536c0.025,0.002,0.048,0.008,0.073,0.01
					c4.73,0.397,9.298-8.023,10.201-18.806C121.937,391.328,118.835,382.266,114.104,381.869z"/>
				<path style="fill:#01AAA3;" d="M126.884,401.043c-4.194-2.223-11.702,3.726-16.769,13.287
					c-4.217,7.957-5.411,15.905-3.276,19.63c-1.42,2.974-2.804,6.184-3.888,9.338c-0.394-2.904-1.102-5.666-2.013-8.253
					c1.185-8.596-1.177-22.499-3.519-33.192c0.164-0.038,0.327-0.083,0.486-0.143c4.447-1.661,4.981-11.225,1.194-21.361
					c-3.787-10.136-10.462-17.007-14.908-15.346c-4.447,1.661-4.981,11.225-1.194,21.361c3.201,8.569,8.466,14.802,12.703,15.522
					c2.055,9.355,4.162,21.258,3.858,29.676c-0.674-1.521-1.407-2.963-2.166-4.324c3.247-3.331,0.161-12.239-7.021-20.104
					c-7.296-7.99-16.053-11.873-19.558-8.672s-0.432,12.273,6.865,20.264c6.557,7.18,14.29,11.04,18.335,9.427
					c2.982,5.374,5.497,12.089,5.619,19.585c-0.551,2.259-0.87,4.409-0.84,6.323c0.007,0.455,0.378,0.819,0.832,0.819
					c0.004,0,0.009,0,0.013,0c0.459-0.007,0.826-0.386,0.819-0.845c-0.081-5.187,2.625-12.39,5.587-18.687
					c0.157,0.117,0.319,0.226,0.493,0.318c4.194,2.223,11.702-3.726,16.769-13.287C130.371,412.819,131.078,403.266,126.884,401.043
					z"/>
			</g>
			<g>
				<path style="fill:#FF7063;" d="M114.343,458.255h-21.25c-9.38,0-16.983-7.604-16.983-16.983v-1.729h55.216v1.729
					C131.327,450.652,123.723,458.255,114.343,458.255z"/>
				
					<line style="fill:none;stroke:#BC413B;stroke-linecap:round;stroke-linejoin:round;stroke-miterlimit:10;" x1="78.712" y1="442.095" x2="128.58" y2="442.095"/>
			</g>
		</g>
		<g>
			<g>
				<polygon style="fill:#FFA5C9;" points="110.251,85.161 110.251,261.129 231.795,261.129 231.795,108.92 209.499,85.161 				"/>
				<g>
					<path style="fill:#FFFFFF;" d="M143.377,140.257c-10.046,0-18.22-8.173-18.22-18.219c0-10.046,8.173-18.22,18.22-18.22
						c10.046,0,18.219,8.173,18.219,18.22C161.596,132.083,153.423,140.257,143.377,140.257z M143.377,108.601
						c-7.409,0-13.436,6.027-13.436,13.436s6.027,13.436,13.436,13.436s13.436-6.027,13.436-13.436S150.786,108.601,143.377,108.601
						z"/>
					<path style="fill:#7C6F3A;" d="M134.346,112.118c2.389-2.177,5.552-3.517,9.031-3.517c5.109,0,9.56,2.868,11.831,7.077l0.001,0
						l4.423-1.824c-3.004-5.943-9.154-10.037-16.256-10.037c-5.108,0-9.724,2.119-13.036,5.517l3.992,2.775L134.346,112.118z"/>
				</g>
				<g>
					<rect x="117.888" y="155.358" style="fill:#FFFFFF;" width="53.135" height="10.384"/>
					<rect x="117.888" y="182.192" style="fill:#FFFFFF;" width="85.004" height="4.974"/>
					<rect x="117.888" y="192.238" style="fill:#FFFFFF;" width="85.004" height="4.974"/>
					<rect x="117.888" y="201.805" style="fill:#FFFFFF;" width="85.004" height="4.974"/>
					<rect x="117.888" y="235.01" style="fill:#FFFFFF;" width="85.004" height="4.974"/>
				</g>
				<path style="fill:#E583AB;" d="M209.499,85.161c0,0,8.167,26.948,7.976,26.948c-0.191,0,14.32-3.189,14.32-3.189L209.499,85.161
					z"/>
				<polygon style="fill:#EFC7D8;" points="231.795,108.92 209.499,85.161 212.083,108.92 				"/>
				<g>
					<path style="fill:#FFFFFF;" d="M186.851,140.257c-10.046,0-18.219-8.173-18.219-18.219c0-10.046,8.173-18.22,18.219-18.22
						c10.046,0,18.219,8.173,18.219,18.22C205.07,132.083,196.897,140.257,186.851,140.257z M186.851,108.601
						c-7.409,0-13.436,6.027-13.436,13.436s6.027,13.436,13.436,13.436s13.436-6.027,13.436-13.436S194.259,108.601,186.851,108.601
						z"/>
					<path style="fill:#E51A3C;" d="M205.07,122.037c0-10.046-8.173-18.22-18.219-18.22c-2.732,0-5.316,0.622-7.644,1.704
						l2.222,4.227l0.004,0.004c1.659-0.735,3.49-1.151,5.418-1.151c7.409,0,13.436,6.027,13.436,13.436
						c0,5.755-3.644,10.663-8.741,12.573l-0.002,0.016l-0.686,5.173C198.981,137.965,205.07,130.705,205.07,122.037z"/>
				</g>
			</g>
			<polygon style="fill:none;stroke:#B23F73;stroke-miterlimit:10;" points="213.503,88.562 114.58,80.534 100.345,255.925 
				221.491,265.757 233.804,114.047 			"/>
		</g>
		<g>
			<polygon style="fill:#F25F5F;" points="539.703,377.428 559.336,301.399 539.703,301.399 			"/>
			<polygon style="fill:#963535;" points="539.703,139.536 539.703,375.976 385.172,375.976 385.172,141.486 			"/>
			<polygon style="fill:#963535;" points="505.796,108.92 523.758,194.388 505.796,194.388 			"/>
			<polygon style="fill:#F25F5F;" points="523.758,194.388 539.703,139.536 512.231,139.536 			"/>
		</g>
		<g>
			<path style="fill:#682299;" d="M478.147,458.255H287.438l0,0c0-10.854,8.798-19.652,19.652-19.652h151.405
				C469.349,438.603,478.147,447.402,478.147,458.255L478.147,458.255z"/>
			<polygon style="fill:#471B6D;" points="385.061,404.374 380.524,404.374 322.65,404.374 342.701,439.082 380.524,439.082 
				385.061,439.082 422.885,439.082 442.936,404.374 			"/>
			<polygon style="fill:#2A1244;" points="322.65,404.374 431.953,423.384 442.936,404.374 			"/>
			<path style="fill:#682299;" d="M518.786,404.374H246.799c-6.094,0-11.033-4.94-11.033-11.033V186.925
				c0-6.094,4.94-11.033,11.033-11.033h271.987c6.094,0,11.033,4.94,11.033,11.033v206.416
				C529.819,399.435,524.88,404.374,518.786,404.374z"/>
			<rect x="245.369" y="187.384" style="fill:#FFFFFF;" width="274.847" height="190.172"/>
			<linearGradient id="SVGID_1_" gradientUnits="userSpaceOnUse" x1="382.7928" y1="377.5564" x2="382.7928" y2="187.384">
				<stop  offset="0" style="stop-color:#E1446A;stop-opacity:0.5"/>
				<stop  offset="1" style="stop-color:#5083C2;stop-opacity:0"/>
			</linearGradient>
			<rect x="245.369" y="187.384" style="fill:url(#SVGID_1_);" width="274.847" height="190.172"/>
		</g>
		<g>
			<path style="fill:#009F93;" d="M273.144,458.255H134.205c-5.387,0-9.755-4.367-9.755-9.755l0,0c0-5.387,4.367-9.754,9.755-9.754
				h138.939V458.255z"/>
			<rect x="134.237" y="442.893" style="fill:#E5FEEB;" width="138.907" height="11.172"/>
		</g>
		<g>
			<path style="fill:#471B6D;" d="M110.928,438.746h143.582c2.823,0,5.111-2.288,5.111-5.111v-9.287
				c0-2.823-2.288-5.111-5.111-5.111H110.928V438.746z"/>
			
				<rect x="110.928" y="423.384" transform="matrix(-1 -1.224647e-16 1.224647e-16 -1 360.7631 857.9409)" style="fill:#E5FEEB;" width="138.907" height="11.172"/>
		</g>
		<g>
			<rect x="254.996" y="108.92" style="fill:#D64441;" width="250.8" height="250.345"/>
			<rect x="270.77" y="129.011" style="fill:#FFFFFF;" width="218.546" height="214.101"/>
			<g>
				<rect x="292.069" y="261.678" style="fill:#D9CFE2;" width="18.459" height="76.137"/>
				<rect x="321.597" y="237.497" style="fill:#D9CFE2;" width="18.459" height="100.318"/>
				<rect x="375.942" y="216.431" style="fill:#D9CFE2;" width="18.459" height="121.385"/>
				<rect x="403.149" y="223.409" style="fill:#D9CFE2;" width="18.459" height="114.406"/>
				<polygon style="fill:#D9CFE2;" points="450.008,165.249 455.199,165.249 440.842,138.939 426.484,165.249 431.549,165.249 
					431.549,323.665 431.612,323.665 431.612,337.815 450.071,337.815 450.071,187.053 450.008,187.053 				"/>
				<polygon style="fill:#D9CFE2;" points="368.076,186.096 373.266,186.096 358.909,159.786 344.552,186.096 349.617,186.096 
					349.617,337.815 368.076,337.815 				"/>
			</g>
			<g>
				<g>
					<rect x="288.243" y="259.765" style="fill:#C9B667;" width="18.459" height="76.137"/>
					<rect x="317.77" y="235.583" style="fill:#C9B667;" width="18.459" height="100.318"/>
					<rect x="372.115" y="214.517" style="fill:#C9B667;" width="18.459" height="121.384"/>
					<rect x="399.322" y="221.496" style="fill:#C9B667;" width="18.459" height="114.406"/>
				</g>
				<polygon style="fill:#E51A3C;" points="446.181,163.336 451.372,163.336 437.015,137.026 422.658,163.336 427.722,163.336 
					427.722,321.752 427.785,321.752 427.785,335.902 446.244,335.902 446.244,185.14 446.181,185.14 				"/>
				<polygon style="fill:#D85B77;" points="364.249,184.183 369.439,184.183 355.082,157.873 340.725,184.183 345.79,184.183 
					345.79,335.902 364.249,335.902 				"/>
			</g>
		</g>
		<g style="opacity:0.35;">
			<polygon style="fill:#161515;" points="488.519,236.596 458.701,252.382 458.701,354.105 529.819,354.105 529.819,236.596 			"/>
			<g>
				<path style="fill:#161515;" d="M328.055,178.642c0-31.417-25.469-56.886-56.886-56.886c-5.62,0-11.045,0.828-16.173,2.346
					v51.789h-8.674c-5.83,0-10.556,4.726-10.556,10.556v36.705c9.717,7.739,22.015,12.376,35.403,12.376
					C302.586,235.528,328.055,210.059,328.055,178.642z"/>
				<path style="fill:#161515;" d="M241.732,296.756l2.161,6.668l15.496-5.022l-2.161-6.668c1.382-0.975,2.654-2.071,3.816-3.263
					l6.25,3.19l7.406-14.509l-6.25-3.19c0.284-1.64,0.426-3.313,0.405-5.005l6.668-2.161L270.5,251.3l-6.668,2.161
					c-0.975-1.382-2.071-2.654-3.264-3.816l3.19-6.25l-14.509-7.406l-3.19,6.25c-1.64-0.284-3.314-0.426-5.005-0.405l-2.161-6.668
					l-3.129,1.014v62.054l0.962-1.884C238.367,296.635,240.041,296.777,241.732,296.756z"/>
			</g>
		</g>
		<g>
			<g>
				<path style="fill:#ECC1BA;" d="M405.729,438.417l1.96-9.778l-10.717,1.117l-2.108,12.803
					C394.864,442.558,400.497,462.188,405.729,438.417z"/>
				<path style="fill:#7C1C3C;" d="M381.578,457.888h20.531c0,0,3.367-4.526,5.54,0h7.278c0,0,3.042,0.507,0.543-4.816
					c-2.498-5.323-9.089-14.764-9.741-14.655c-0.652,0.109-2.349,8.804-7.205,7.486c-3.703-1.005-3.504-3.697-3.504-3.697
					s-2.906,7.065-7.794,8.586C382.338,452.312,381.578,454.448,381.578,457.888z"/>
			</g>
			<g>
				<path style="fill:#ECC1BA;" d="M447.586,438.417l-1.444-9.778l-12.079,1.63l2.658,12.29
					C436.721,442.558,442.354,462.188,447.586,438.417z"/>
				<path style="fill:#7C1C3C;" d="M423.435,457.888h20.531c0,0,3.367-4.526,5.54,0h7.278c0,0,3.042,0.507,0.543-4.816
					c-2.498-5.323-9.089-14.764-9.741-14.655c-0.652,0.109-2.349,8.804-7.205,7.486c-3.703-1.005-3.504-3.697-3.504-3.697
					s-2.905,7.065-7.794,8.586C424.195,452.312,423.435,454.448,423.435,457.888z"/>
			</g>
			<g>
				<polygon style="fill:#E1446A;" points="450.392,424.458 439.484,325.518 402.581,324.711 391.984,423.803 388.778,422.734 
					391.092,432.142 410.305,435.641 413.175,430.866 410.938,430.121 418.146,367.362 431.616,431.212 429.917,431.823 
					432.55,435.641 451.366,433.293 452.082,423.85 				"/>
				<g>
					<path style="fill:#7C1C3C;" d="M416.468,341.413c-0.132,0.008-0.232,0.121-0.223,0.254l1.136,17.571l-2.94-3.455l-1.785-15.355
						c-0.016-0.131-0.139-0.221-0.265-0.209c-0.131,0.015-0.225,0.134-0.21,0.265l1.794,15.427c0.006,0.047,0.025,0.091,0.056,0.127
						l3.404,3.999l0.475,7.342c0.008,0.126,0.113,0.223,0.238,0.223c0.006,0,0.011,0,0.016-0.001
						c0.132-0.009,0.232-0.121,0.223-0.254l-1.663-25.711C416.714,341.503,416.588,341.391,416.468,341.413z"/>
					<path style="fill:#7C1C3C;" d="M450.311,424.233l-2.521,0.907l-8.54-77.975c0.584,0.165,1.211,0.259,1.887,0.259
						c0.246,0,0.497-0.011,0.756-0.036c0.131-0.013,0.227-0.13,0.215-0.262c-0.013-0.131-0.115-0.23-0.262-0.215
						c-0.98,0.096-1.859-0.014-2.653-0.267l-1.065-9.722c-0.014-0.131-0.122-0.244-0.264-0.211
						c-0.131,0.014-0.226,0.132-0.211,0.263l1.039,9.487c-4.538-1.882-5.94-8.663-5.956-8.746c-0.025-0.129-0.154-0.214-0.28-0.189
						c-0.13,0.025-0.214,0.151-0.189,0.28c0.017,0.087,1.509,7.359,6.485,9.197l8.576,78.302l-15.794,5.681
						c-0.124,0.045-0.189,0.182-0.144,0.307c0.035,0.097,0.127,0.158,0.225,0.158c0.027,0,0.054-0.005,0.081-0.014l18.777-6.754
						c0.124-0.045,0.189-0.182,0.144-0.306C450.573,424.252,450.435,424.189,450.311,424.233z"/>
					<path style="fill:#7C1C3C;" d="M411.014,429.894l-16.081-5.36c0.007-0.019,0.024-0.031,0.026-0.052l7.977-78.543
						c2.568-2.787,4.013-8.554,4.091-8.873c0.032-0.128-0.047-0.258-0.175-0.29c-0.129-0.032-0.258,0.048-0.289,0.176
						c-0.018,0.072-1.323,5.29-3.542,8.156l0.903-8.89c0.013-0.132-0.082-0.249-0.214-0.263c-0.132-0.019-0.249,0.082-0.262,0.214
						l-0.972,9.573c-0.695,0.719-1.466,1.185-2.304,1.203c-0.132,0.003-0.237,0.112-0.234,0.244
						c0.003,0.131,0.109,0.234,0.239,0.234c0.001,0,0.003,0,0.005,0c0.806-0.017,1.547-0.381,2.221-0.962l-7.915,77.924l-2.43-0.81
						c-0.124-0.04-0.26,0.027-0.303,0.151c-0.042,0.125,0.026,0.261,0.151,0.303l18.955,6.318c0.025,0.008,0.05,0.012,0.076,0.012
						c0.1,0,0.193-0.064,0.227-0.164C411.207,430.071,411.14,429.936,411.014,429.894z"/>
				</g>
			</g>
			<g>
				<path style="fill:#DE9595;" d="M438.694,256.26c1.696,0.84,1.814,4.06,0.263,7.192c-1.551,3.132-4.183,4.99-5.879,4.15
					c-0.055-0.027-0.103-0.063-0.155-0.095c-0.173-0.108-0.322-0.25-0.458-0.409c-1.064-1.243-0.983-3.948,0.316-6.615
					c0.012-0.024,0.022-0.048,0.033-0.072c0.427-0.862,0.94-1.615,1.489-2.255C435.748,256.473,437.465,255.652,438.694,256.26z"/>
				<path style="fill:#D79081;" d="M429.128,270.003c0.507-1.589-13.006-4.988-11.304,5.03c0.001,0.004,0.001,0.008,0.001,0.012
					c0,0,0.565,0.753,1.06,2.034c0.485,1.257,0.902,3.023,0.647,5.093c-0.514,4.178,12.453,3.444,10.812-3.019
					c-0.28-1.104-0.512-2.041-0.706-2.861c-0.486-2.052-0.718-3.311-0.77-4.226C428.819,271.207,428.924,270.642,429.128,270.003z"
					/>
				<path style="fill:#EFCDCA;" d="M411.727,256.982c0,0,0.673,4.104,0.06,7.365c-0.613,3.261,2.617,8.731,5.636,10.504
					c3.019,1.772,9.686-1.122,12.208-3.392c2.522-2.27,4.572-8.353,4.87-11.143c0.298-2.79-3.168-14.187-11.233-13.418
					C415.205,247.666,410.815,249.994,411.727,256.982z"/>
				<path style="fill:#1A0C2A;" d="M413.903,255.187c0,0,1.997,1.052,6.465,2.685l-1.031-2.449c0,0,3.007,3.222,6.53,3.995
					l-2.148-3.358c0,0,3.522,3.186,9.021,3.959l-1.009-2.577c0,0,2.899,2.94,1.009,9.03c0,0,2.776-6.062,3.149-9.737
					c0,0,3.561-1.785,4.158,2.167c0,0,0.769-8.764-3.527-13.489c-4.296-4.725-6.032-5.327-6.032-5.327s4.314,2.234,6.462,1.632
					c2.148-0.601-10.27-17.097-12.868-12.63c-2.597,4.468,0.911,9.279,0.911,9.279s-14.742,1.804-16.632,12.372
					c0,0-1.547,7.346,1.525,11.599C409.886,262.339,409.779,255.015,413.903,255.187z"/>
			</g>
			<g>
				<path style="fill:#00A8B7;" d="M429.33,274.941l18.577,4.897c0,0,9.317,33.516,9.835,38.951l-16.564,3.882l1.812,13.199
					c0,0-24.975,6.6-43.48-1.165l3.106-15.917l-7.894-2.976l13.199-34.939l10.964-3.795
					C418.885,277.08,421.198,283.275,429.33,274.941z"/>
				<g>
					<path style="fill:#06595B;" d="M435.707,287.478c-0.131,0.017-0.223,0.137-0.207,0.268l4.305,32.934
						c0.016,0.121,0.119,0.208,0.237,0.208c0.01,0,0.021-0.001,0.031-0.002c0.131-0.017,0.223-0.137,0.206-0.268l-4.305-32.934
						C435.957,287.553,435.834,287.463,435.707,287.478z"/>
					<path style="fill:#06595B;" d="M409.961,288.918c-0.131-0.032-0.257,0.049-0.288,0.177l-6.219,25.951
						c-0.031,0.129,0.049,0.258,0.177,0.289c0.019,0.005,0.037,0.007,0.056,0.007c0.108,0,0.206-0.074,0.233-0.183l6.219-25.951
						C410.169,289.077,410.09,288.948,409.961,288.918z"/>
					<path style="fill:#06595B;" d="M422.007,278.961c-0.131-0.021-0.248,0.084-0.261,0.216l-2.87,30.481
						c-0.012,0.132,0.084,0.249,0.216,0.261c0.007,0.001,0.015,0.001,0.023,0.001c0.122,0,0.226-0.093,0.238-0.217l2.87-30.481
						C422.235,279.09,422.139,278.973,422.007,278.961z"/>
					<path style="fill:#06595B;" d="M454.093,315.668l-11.481,3.069c-0.128,0.034-0.204,0.165-0.169,0.292
						c0.028,0.108,0.125,0.178,0.231,0.178c0.021,0,0.041-0.003,0.062-0.008l11.481-3.069c0.128-0.034,0.204-0.165,0.169-0.292
						C454.352,315.709,454.218,315.633,454.093,315.668z"/>
				</g>
				<g>
					<polygon style="fill:#085C5E;" points="429.068,273.619 432.389,274.44 426.232,284.778 421.985,279.198 					"/>
					<polygon style="fill:#085C5E;" points="421.985,279.198 418.756,283.171 416.244,276.461 418.371,275.947 					"/>
				</g>
			</g>
			<g>
				<path style="fill:#EFCDCA;" d="M454.784,319.483c0,0,2.721,11.524,1.206,13.198c-1.515,1.674-12.198,2.79-20.57-1.993
					c-8.371-4.784-14.829-11.72-14.829-11.72l-15.308-2.87c0,0,0.797-3.508,7.893-3.827c7.096-0.319,8.371,0,8.371,0l21.009,10.078
					L454.784,319.483z"/>
				<path style="fill:#471715;" d="M450.728,326.112c-2.827-3.828-7.899-3.884-8.162-3.884c-0.006,0-0.009,0-0.01,0
					c-0.065,0.001-0.119,0.055-0.118,0.122c0.001,0.065,0.054,0.118,0.12,0.118c0.002,0,0.001,0,0.012,0
					c0.257,0,5.21,0.055,7.966,3.787c0.023,0.032,0.06,0.048,0.096,0.048c0.025,0,0.049-0.007,0.071-0.023
					C450.756,326.24,450.767,326.166,450.728,326.112z"/>
			</g>
			<polygon style="fill:#E1446A;" points="352.544,292.657 384.833,292.657 401.337,316.097 420.591,316.097 420.591,318.968 
				374.668,318.968 			"/>
			<g>
				<path style="fill:#EFCDCA;" d="M394.584,318.979l-8.04-0.007v0c0,0-3.8-3.607-5.398-5.414c-1.599-1.807-1.65-0.067-1.65-0.067
					l-0.241-0.213c-0.939-0.831-1.516-1.666-1.933-1.342c-0.789,0.613,0.301,1.969,0.301,1.969s-2.816-3.343-3.847-2.963
					c-0.322,0.118,0.312,1.771,0.974,2.986c-0.001-0.001-1.691-2.386-1.9-0.962c-0.208,1.425,3.058,6.439,3.649,7.078
					c0.591,0.638,2.079,2.27,4.219,2.454c0.01,0.001,0.02,0.001,0.03,0.002c0.962,0.221,2.346,0.069,4.257,0.431
					c3.146,0.597,15.347,7.457,15.347,7.457l2.228-11.42L394.584,318.979z"/>
				<g>
					<path style="fill:#471715;" d="M374.693,313.561c-0.036-0.057-0.11-0.07-0.166-0.034c-0.055,0.036-0.071,0.11-0.034,0.165
						l2.545,3.867c0.023,0.036,0.061,0.054,0.1,0.054c0.023,0,0.045-0.007,0.066-0.02c0.055-0.036,0.07-0.11,0.034-0.165
						L374.693,313.561z"/>
					<path style="fill:#471715;" d="M377.724,313.841c-0.035-0.056-0.107-0.073-0.165-0.037c-0.056,0.035-0.072,0.109-0.037,0.164
						l2.065,3.27c0.022,0.036,0.061,0.056,0.101,0.056c0.022,0,0.044-0.006,0.064-0.019c0.056-0.035,0.072-0.109,0.037-0.164
						L377.724,313.841z"/>
					<path style="fill:#471715;" d="M379.358,313.215c-0.034-0.057-0.109-0.074-0.164-0.041c-0.057,0.035-0.075,0.107-0.041,0.164
						l2.347,3.898c0.022,0.037,0.062,0.058,0.102,0.058c0.021,0,0.042-0.006,0.062-0.017c0.056-0.035,0.075-0.107,0.041-0.164
						L379.358,313.215z"/>
					<path style="fill:#471715;" d="M396.961,318.859c-0.059-0.028-0.131-0.003-0.159,0.058c-0.028,0.059-0.002,0.131,0.057,0.159
						c0.039,0.019,3.912,1.872,3.758,4.55c-0.004,0.065,0.047,0.122,0.113,0.126c0.002,0,0.005,0,0.007,0
						c0.063,0,0.116-0.049,0.12-0.113C401.019,320.801,397.127,318.938,396.961,318.859z"/>
				</g>
			</g>
		</g>
		<g>
			<g>
				<path style="fill:#1C0814;" d="M273.017,421.248l0.127-33.747c0,0-3.768,0.084-6.046,4.695
					c-2.278,4.611-7.387,4.101-7.387,4.101l-0.083,22.214l12.964,2.735"/>
				<polygon style="fill:#EFCDCA;" points="259.636,414.37 244.715,415.493 244.774,399.659 259.691,399.715 				"/>
			</g>
			<g>
				<path style="fill:#915965;" d="M254.983,397.001l-10.268-4.973l1.717,4.556l-7.044-0.343l-7.061-0.138l-3.393-4.074l4.329-3.393
					v-8.202l-4.23,2.949l-39.537-49.091l-24.579,14.992l-20.216,22.63l-30.749,13.272c0,0,1.776,20.938,5.324,26.259
					c3.548,5.322,7.855,7.855,31.675,7.855s104.045,0,104.045,0L254.983,397.001z M168.274,393.835l17.393-22.428l23.146,25.582
					L168.274,393.835z"/>
				<g>
					<path style="fill:#56303A;" d="M168.435,393.657c-0.097-0.087-0.249-0.081-0.338,0.017l-17.647,19.492
						c-0.044,0.052-4.543,5.227-13.717,5.44c-0.132,0.003-0.236,0.113-0.234,0.245c0.003,0.13,0.11,0.234,0.239,0.234
						c0.002,0,0.004,0,0.006,0c9.386-0.218,14.024-5.555,14.065-5.602l17.642-19.486
						C168.54,393.897,168.533,393.746,168.435,393.657z"/>
					<path style="fill:#56303A;" d="M131.377,385.434l-7.708,8.237c-0.09,0.096-0.085,0.248,0.011,0.338
						c0.046,0.043,0.105,0.064,0.163,0.064c0.064,0,0.128-0.025,0.175-0.076l7.708-8.237c0.09-0.096,0.085-0.248-0.011-0.338
						C131.619,385.333,131.467,385.338,131.377,385.434z"/>
					<path style="fill:#56303A;" d="M185.667,371.646c0.01,0,0.02-0.001,0.03-0.002c0.267-0.034,6.565-0.861,8.505-3.301
						c0.082-0.103,0.065-0.253-0.038-0.335c-0.104-0.083-0.254-0.065-0.336,0.038c-1.539,1.935-6.289,2.825-7.756,3.059
						c0.948-2.063,4.897-11.15,2.547-14.528c-0.076-0.109-0.224-0.135-0.333-0.06c-0.109,0.076-0.135,0.224-0.06,0.333
						c2.443,3.512-2.723,14.344-2.775,14.453c-0.038,0.078-0.03,0.173,0.021,0.244C185.518,371.609,185.591,371.646,185.667,371.646
						z"/>
					<path style="fill:#56303A;" d="M228.899,383.184l-20.215,13.603l-2.704,1.724l-37.693-2.167
						c-0.14,0.006-0.245,0.094-0.252,0.225c-0.007,0.132,0.093,0.245,0.225,0.253l37.03,2.129l-2.964,1.89
						c-0.087,0.055-0.128,0.16-0.104,0.26c0.025,0.1,0.111,0.173,0.214,0.18l14.312,1.118c0.007,0.001,0.013,0.001,0.019,0.001
						c0.123,0,0.228-0.095,0.238-0.22c0.01-0.132-0.088-0.247-0.22-0.257l-13.599-1.063l5.759-3.673l20.22-13.606
						c0.109-0.074,0.139-0.222,0.065-0.332C229.157,383.14,229.009,383.111,228.899,383.184z"/>
					<path style="fill:#56303A;" d="M246.67,396.557c-0.014-0.131-0.136-0.234-0.263-0.211c-0.132,0.014-0.227,0.132-0.212,0.263
						l2.425,22.261c0.014,0.122,0.117,0.213,0.237,0.213c0.009,0,0.018,0,0.026-0.002c0.132-0.014,0.227-0.132,0.212-0.264
						L246.67,396.557z"/>
					<path style="fill:#56303A;" d="M224.361,382.616c0.047,0.059,0.116,0.089,0.186,0.089c0.053,0,0.107-0.018,0.15-0.053
						c0.103-0.083,0.119-0.233,0.036-0.336l-34.706-42.814c-0.084-0.105-0.236-0.118-0.336-0.036
						c-0.103,0.083-0.119,0.234-0.035,0.336L224.361,382.616z"/>
				</g>
			</g>
			<g>
				<path style="fill:#F2C3BA;" d="M150.563,306.134c4.213,7.097,1.875,16.266-5.222,20.479c-7.097,4.213-16.266,1.875-20.479-5.222
					c-4.213-7.097-1.875-16.266,5.222-20.479C137.18,296.699,146.349,299.036,150.563,306.134z"/>
				<path style="fill:#EA9495;" d="M136.953,315.432c1.832,3.678,1.677,7.476-0.346,8.485c-2.023,1.008-5.149-1.156-6.982-4.834
					c-1.832-3.678-1.677-7.476,0.346-8.485C131.994,309.59,135.12,311.754,136.953,315.432z"/>
				<path style="fill:#4C1813;" d="M128.859,325.807c0,0-8.443-3.56-10.344-13.189c-1.901-9.629,0.715-15.458,5.172-17.992
					c4.457-2.534,11.806,0.38,18.141-1.52c6.335-1.9,7.095-1.267,9.376,2.027c2.281,3.294,0.269,7.436-2.653,8.343
					c-2.922,0.907-9.004-0.107-9.257,3.441c-0.253,3.548-1.063,12.163-1.063,12.163s-3.498-9.883-6.666-8.362
					c-3.167,1.52-0.416,10.746-0.416,10.746S134.008,327.466,128.859,325.807z"/>
			</g>
			<path style="fill:#F2C3BA;" d="M194.015,317.829l6.328-8.561l0.523,0.785c0.256,0.384,0.327,0.863,0.192,1.305l-0.905,2.977
				l11.034-3.818c0.598-0.207,1.125,0.451,0.793,0.99l-6.4,10.359l-6.618,1.607L194.015,317.829z"/>
			<g>
				<path style="fill:#420C2B;" d="M200.111,324.164l-6.082-6.907l-8.447,2.286l1.865,1.18l-22.137,11.659l-25.002-3.674
					l-8.756-1.334l-6.279,1.334L109.9,385.091l21.652,0.507l13.148-13.684v-23.313l25.002,0.845c0,0,4.899-0.507,10.643-6.251
					c4.111-4.111,12.459-12.083,16.875-16.285l1.708,1.081L200.111,324.164z"/>
				<g>
					<path style="fill:#B7426C;" d="M197.349,326.708l-9.773-6.186c-0.111-0.069-0.259-0.037-0.33,0.074
						c-0.071,0.112-0.037,0.26,0.074,0.33l9.773,6.186c0.04,0.025,0.084,0.037,0.128,0.037c0.079,0,0.156-0.039,0.202-0.111
						C197.494,326.926,197.46,326.778,197.349,326.708z"/>
					<path style="fill:#B7426C;" d="M140.51,341.439c-0.07-0.111-0.218-0.144-0.329-0.076c-0.112,0.07-0.146,0.218-0.076,0.33
						l4.003,6.411l-5.787-2.335c-0.122-0.052-0.262,0.008-0.312,0.132c-0.049,0.122,0.01,0.262,0.132,0.311l6.469,2.61
						c0.029,0.012,0.06,0.018,0.09,0.018c0.069,0,0.137-0.03,0.183-0.085c0.067-0.079,0.075-0.193,0.02-0.281L140.51,341.439z"/>
					<path style="fill:#B7426C;" d="M165.276,332.147c-0.235,0.034-5.784,0.876-7.372,4.906c-0.049,0.123,0.012,0.262,0.134,0.31
						c0.029,0.011,0.058,0.017,0.088,0.017c0.095,0,0.186-0.057,0.222-0.151c1.485-3.769,6.941-4.6,6.995-4.609
						c0.131-0.019,0.221-0.14,0.203-0.271C165.528,332.218,165.401,332.122,165.276,332.147z"/>
					<path style="fill:#B7426C;" d="M133.299,383.064l-20.607-0.837c-0.118,0.002-0.243,0.098-0.249,0.23
						c-0.005,0.132,0.098,0.243,0.229,0.249l20.607,0.837c0.003,0,0.006,0,0.01,0c0.128,0,0.233-0.101,0.239-0.23
						C133.533,383.181,133.43,383.069,133.299,383.064z"/>
				</g>
			</g>
			<g>
				<path style="fill:#1C0814;" d="M224.401,420.153l25.931-21.597c0,0-2.487-2.832-7.484-1.613c-4.997,1.219-7.89-3.023-7.89-3.023
					l-17.069,14.216l6.239,11.689"/>
				<polygon style="fill:#EFCDCA;" points="221.067,405.481 216.768,402.161 228.934,392.028 232.328,396.103 				"/>
			</g>
		</g>
		<g>
			
				<ellipse transform="matrix(0.2274 -0.9738 0.9738 0.2274 36.501 393.7242)" style="fill:#116D6A;" cx="266.385" cy="173.858" rx="56.886" ry="56.886"/>
			<path style="fill:#DAEABB;" d="M266.385,127.487c-25.569,0-46.371,20.802-46.371,46.371c0,25.569,20.802,46.371,46.371,46.371
				c25.569,0,46.371-20.802,46.371-46.371C312.756,148.289,291.954,127.487,266.385,127.487z M266.385,203.008
				c-16.073,0-29.15-13.077-29.15-29.15c0-16.073,13.077-29.15,29.15-29.15c16.073,0,29.149,13.077,29.149,29.15
				C295.535,189.931,282.458,203.008,266.385,203.008z"/>
			<path style="fill:#E51A3C;" d="M274.234,145.791c6.164,1.726,11.509,5.429,15.302,10.383l0.001,0l13.481-10.695
				c-6.086-7.837-14.621-13.676-24.451-16.356L274.234,145.791L274.234,145.791z"/>
			<path style="fill:#D85B77;" d="M274.234,145.791L274.234,145.791l4.334-16.668c-3.885-1.059-7.967-1.635-12.183-1.635
				c-1.192,0-2.37,0.06-3.54,0.149l3.54,17.072C269.105,144.708,271.735,145.091,274.234,145.791z"/>
		</g>
		<g>
			<polygon style="fill:#FFA5C9;" points="588.213,96.587 574.509,109.558 574.509,168.549 627.745,168.549 627.745,96.587 			"/>
			<polygon style="fill:#873C5E;" points="574.509,109.558 587.705,111.25 588.213,96.587 			"/>
			<polygon style="fill:#C65885;" points="588.213,96.587 574.509,109.558 589.397,109.558 			"/>
			<polygon style="fill:#E1446A;" points="623.553,159.614 614.898,168.549 567.599,168.549 567.599,219.158 634.908,219.158 
				634.908,168.549 634.908,159.614 			"/>
			<g>
				<path style="fill:#C65885;" d="M581.79,118.398h38.674c0.264,0,0.478-0.214,0.478-0.478c0-0.264-0.214-0.478-0.478-0.478H581.79
					c-0.264,0-0.478,0.214-0.478,0.478C581.312,118.184,581.526,118.398,581.79,118.398z"/>
				<path style="fill:#C65885;" d="M620.464,122.606H581.79c-0.264,0-0.478,0.214-0.478,0.478c0,0.264,0.214,0.478,0.478,0.478
					h38.674c0.264,0,0.478-0.214,0.478-0.478C620.942,122.82,620.728,122.606,620.464,122.606z"/>
				<path style="fill:#C65885;" d="M620.464,127.656H581.79c-0.264,0-0.478,0.214-0.478,0.478s0.214,0.478,0.478,0.478h38.674
					c0.264,0,0.478-0.214,0.478-0.478S620.728,127.656,620.464,127.656z"/>
				<path style="fill:#C65885;" d="M620.464,132.821H581.79c-0.264,0-0.478,0.214-0.478,0.478s0.214,0.478,0.478,0.478h38.674
					c0.264,0,0.478-0.214,0.478-0.478S620.728,132.821,620.464,132.821z"/>
				<path style="fill:#C65885;" d="M620.464,137H581.79c-0.264,0-0.478,0.214-0.478,0.478s0.214,0.478,0.478,0.478h38.674
					c0.264,0,0.478-0.214,0.478-0.478S620.728,137,620.464,137z"/>
				<path style="fill:#C65885;" d="M620.464,142.165H581.79c-0.264,0-0.478,0.214-0.478,0.478s0.214,0.478,0.478,0.478h38.674
					c0.264,0,0.478-0.214,0.478-0.478S620.728,142.165,620.464,142.165z"/>
				<path style="fill:#C65885;" d="M620.464,146.279H581.79c-0.264,0-0.478,0.214-0.478,0.478s0.214,0.478,0.478,0.478h38.674
					c0.264,0,0.478-0.214,0.478-0.478S620.728,146.279,620.464,146.279z"/>
				<path style="fill:#C65885;" d="M620.464,151.443H581.79c-0.264,0-0.478,0.214-0.478,0.478c0,0.264,0.214,0.478,0.478,0.478
					h38.674c0.264,0,0.478-0.214,0.478-0.478C620.942,151.657,620.728,151.443,620.464,151.443z"/>
			</g>
			
				<polyline style="fill:none;stroke:#FFFFFF;stroke-width:4;stroke-linecap:round;stroke-linejoin:round;stroke-miterlimit:10;" points="
				590.109,192.68 598.176,201.171 614.734,183.339 			"/>
		</g>
		<g>
			<path style="fill:#682299;" d="M218.638,297.026l-2.144-6.616l-2.847,0.923c-0.416-0.59-0.884-1.133-1.393-1.629l1.362-2.668
				l-6.195-3.162l-1.362,2.668c-0.7-0.121-1.415-0.182-2.137-0.173L203,283.521l-6.616,2.144l0.923,2.847
				c-0.59,0.416-1.133,0.884-1.629,1.393l-2.668-1.362l-3.162,6.195l2.668,1.362c-0.121,0.7-0.182,1.415-0.173,2.137l-2.847,0.923
				l2.144,6.616l2.847-0.923c0.416,0.59,0.884,1.133,1.393,1.629l-1.362,2.668l6.195,3.162l1.362-2.668
				c0.7,0.121,1.415,0.182,2.137,0.173l0.923,2.847l6.616-2.144l-0.923-2.847c0.59-0.416,1.133-0.884,1.629-1.393l2.668,1.362
				l3.162-6.195l-2.668-1.362c0.121-0.7,0.182-1.415,0.173-2.137L218.638,297.026z M210.795,295.912
				c1.202,3.71-0.838,7.706-4.548,8.909c-3.71,1.202-7.706-0.838-8.908-4.548c-1.202-3.71,0.838-7.706,4.547-8.909
				C205.596,290.162,209.593,292.202,210.795,295.912z"/>
			<g>
				<path style="fill:#471B6D;" d="M264.071,264.173l6.668-2.161l-5.022-15.496l-6.668,2.161c-0.975-1.382-2.071-2.654-3.263-3.815
					l3.19-6.25l-14.509-7.406l-3.19,6.25c-1.64-0.284-3.313-0.426-5.005-0.405l-2.161-6.668l-15.496,5.022l2.161,6.668
					c-1.382,0.975-2.654,2.071-3.815,3.263l-6.25-3.19l-7.406,14.509l6.25,3.19c-0.284,1.64-0.426,3.313-0.405,5.004l-6.668,2.161
					l5.022,15.496l6.668-2.161c0.975,1.382,2.071,2.654,3.263,3.816l-3.19,6.25l14.509,7.406l3.19-6.25
					c1.64,0.284,3.313,0.426,5.004,0.405l2.161,6.668l15.496-5.022l-2.161-6.668c1.382-0.975,2.654-2.071,3.816-3.263l6.25,3.19
					l7.406-14.509l-6.25-3.19C263.951,267.538,264.093,265.864,264.071,264.173z"/>
				<path style="fill:#5C2991;" d="M236.61,242.745c-12.002,0-21.766,9.764-21.766,21.766c0,12.001,9.764,21.766,21.766,21.766
					c12.002,0,21.766-9.764,21.766-21.766C258.376,252.51,248.612,242.745,236.61,242.745z M236.61,285.32
					c-11.474,0-20.809-9.335-20.809-20.809c0-11.474,9.335-20.809,20.809-20.809c11.474,0,20.809,9.335,20.809,20.809
					C257.419,275.986,248.085,285.32,236.61,285.32z"/>
				<path style="fill:#7A45BF;" d="M236.61,245.377c-10.551,0-19.135,8.584-19.135,19.135c0,10.551,8.584,19.135,19.135,19.135
					s19.135-8.584,19.135-19.135C255.745,253.96,247.161,245.377,236.61,245.377z M236.61,282.805
					c-10.087,0-18.294-8.206-18.294-18.294c0-10.087,8.206-18.294,18.294-18.294c10.087,0,18.294,8.206,18.294,18.294
					C254.904,274.598,246.698,282.805,236.61,282.805z"/>
			</g>
		</g>
		<g>
			<g>
				<g>
					<polygon style="fill:#438DFA;" points="493.621,230.744 463.803,246.53 463.803,348.254 606.287,348.254 606.287,230.744 					
						"/>
					<polygon style="fill:#2F76CC;" points="493.621,230.744 472.733,254.822 463.803,246.53 					"/>
					<polygon style="fill:#75ABEA;" points="463.803,246.53 493.621,230.744 477.995,253.706 					"/>
				</g>
				<g>
					<path style="fill:#EFE5B9;" d="M600.705,342.49l-30.934-36.147c-0.218-0.254-0.555-0.372-0.885-0.321
						c-0.331,0.055-0.609,0.28-0.732,0.592l-8.312,21.056l-40.749-52.729c-0.168-0.218-0.422-0.352-0.696-0.37
						c-0.283-0.012-0.544,0.085-0.738,0.279l-9.829,9.853l-21.396-22.616h9.259c0.529,0,0.957-0.428,0.957-0.957
						c0-0.528-0.428-0.957-0.957-0.957h-11.481c-0.01,0-0.019,0.006-0.029,0.006c-0.109,0.003-0.219,0.02-0.325,0.062
						c-0.004,0.001-0.006,0.004-0.01,0.006c-0.017,0.007-0.03,0.019-0.046,0.027c-0.086,0.041-0.164,0.093-0.232,0.156
						c-0.026,0.024-0.047,0.05-0.07,0.077c-0.052,0.06-0.096,0.125-0.132,0.195c-0.016,0.031-0.032,0.06-0.045,0.093
						c-0.04,0.106-0.068,0.217-0.068,0.334v11.711c0,0.529,0.428,0.957,0.957,0.957c0.529,0,0.957-0.428,0.957-0.957v-9.308
						l21.948,23.2c0.178,0.188,0.424,0.295,0.682,0.299c0.271,0.019,0.508-0.097,0.69-0.281l9.755-9.779l41.112,53.199
						c0.21,0.273,0.552,0.411,0.891,0.362c0.341-0.049,0.629-0.276,0.755-0.596l8.346-21.142l29.901,34.94
						c0.19,0.22,0.458,0.335,0.727,0.335c0.221,0,0.442-0.076,0.622-0.23C601.001,343.495,601.048,342.891,600.705,342.49z"/>
					<rect x="542.096" y="240.63" style="fill:#EFE5B9;" width="57.882" height="4.305"/>
					<rect x="542.096" y="255.258" style="fill:#EFE5B9;" width="57.882" height="4.305"/>
					<rect x="542.096" y="263.517" style="fill:#EFE5B9;" width="57.882" height="4.305"/>
					<rect x="542.096" y="270.29" style="fill:#EFE5B9;" width="57.882" height="4.305"/>
					
						<ellipse transform="matrix(0.9734 -0.229 0.229 0.9734 -63.229 119.6939)" style="fill:#EFE5B9;" cx="484.213" cy="332.336" rx="8.097" ry="8.097"/>
					<path style="fill:#EFE5B9;" d="M503.791,324.239c-4.472,0-8.097,3.625-8.097,8.097c0,4.472,3.625,8.097,8.097,8.097
						c4.472,0,8.097-3.625,8.097-8.097C511.888,327.864,508.263,324.239,503.791,324.239z"/>
				</g>
			</g>
			<polygon style="fill:none;stroke:#24548E;stroke-miterlimit:10;" points="499.671,226.915 468.43,239.657 458.312,340.876 
				600.09,355.049 611.778,238.122 			"/>
		</g>
		<g>
			<g>
				<path style="fill:#F2C3BA;" d="M605.777,280.005c-1.566,7.631,3.351,15.087,10.982,16.653
					c7.631,1.566,15.087-3.351,16.654-10.982c1.566-7.631-3.351-15.087-10.982-16.654
					C614.799,267.457,607.343,272.374,605.777,280.005z"/>
				<path style="fill:#EA9495;" d="M620.788,284.095c-0.499,3.846,0.813,7.186,2.929,7.461c2.116,0.274,4.236-2.621,4.734-6.467
					s-0.813-7.186-2.929-7.461C623.406,277.354,621.286,280.249,620.788,284.095z"/>
				<path style="fill:#4C1813;" d="M603.621,285.728c0.143,0.162-0.78-3.884,2.288-6.367c0,0,5.766,3.112,10.265,3.498l-1.836-1.463
					c0,0,2.612,0.658,6.26,0.43c0,0-1.291,3.599,0.306,6.085c0,0-0.173-7.483,2.377-9.421c2.55-1.938,5.983,7.188,4.171,10.083
					c-1.813,2.895-0.652,5.269-2.301,6.762c-1.649,1.493,4.289-0.69,5.961-1.996c1.672-1.305,3.914-3.539,5.262-7.893
					c1.555-5.023-2.091-12.898-2.091-12.898s8.834,3.949,10.442-0.909c1.608-4.859-10.92-18.661-14.253-15.561
					c-3.333,3.101-1.498,9.032-1.498,9.032s-12.009-7.47-20.227,0.427S600.997,282.748,603.621,285.728z"/>
			</g>
			<g>
				<polygon style="fill:#6CF7A6;" points="553.736,286.283 698.203,334.359 691.266,357.321 543.212,305.896 534.123,294.177 
					537.595,287.154 				"/>
				<polygon style="fill:#4FC980;" points="535.41,291.574 534.123,294.177 543.212,305.896 691.266,357.321 694.724,345.873 				
					"/>
				<path style="fill:#A7AAA7;" d="M537.595,287.154c0,0-9.691-1.667-10.01,0.406c-0.319,2.073,6.538,6.617,6.538,6.617
					L537.595,287.154z"/>
				<polygon style="fill:#D64F59;" points="698.203,334.359 691.266,357.321 674.983,351.665 683.06,329.32 				"/>
			</g>
			<g>
				<polygon style="fill:#2976D3;" points="653.914,435.368 647.336,348.312 608.11,348.949 580.245,427.348 577.495,426.764 
					578.611,431.946 595.115,438.404 601.891,431.946 598.926,431.316 622.382,387.697 636.708,437.949 634.739,438.245 
					637.928,442.231 654.432,442.231 657.063,434.896 				"/>
				<g>
					<path style="fill:#1A4A7A;" d="M653.843,434.896l-14.601,2.19l-12.331-48.39c-0.065-0.255-0.323-0.414-0.581-0.346
						c-0.256,0.065-0.411,0.325-0.346,0.581l12.307,48.297l-1.654,0.248c-0.262,0.039-0.441,0.282-0.402,0.544
						c0.036,0.237,0.239,0.407,0.472,0.407c0.024,0,0.048-0.002,0.072-0.006l17.205-2.581c0.262-0.039,0.441-0.282,0.402-0.544
						C654.348,435.036,654.103,434.857,653.843,434.896z"/>
					<path style="fill:#1A4A7A;" d="M639.13,359.541c-0.225-0.135-0.52-0.062-0.656,0.166l-16.504,27.745
						c-0.135,0.227-0.061,0.52,0.166,0.656c0.077,0.046,0.161,0.067,0.245,0.067c0.162,0,0.321-0.083,0.411-0.234l16.504-27.745
						C639.432,359.97,639.357,359.676,639.13,359.541z"/>
					<path style="fill:#1A4A7A;" d="M610.403,356.878c-0.245-0.101-0.523,0.019-0.622,0.263l-28.384,69.962l-1.052-0.224
						c-0.246-0.047-0.512,0.109-0.567,0.369c-0.055,0.258,0.11,0.512,0.369,0.567l18.681,3.968c0.033,0.007,0.066,0.01,0.1,0.01
						c0.22,0,0.419-0.154,0.467-0.379c0.055-0.258-0.11-0.512-0.369-0.567l-16.679-3.543l28.32-69.805
						C610.766,357.255,610.648,356.977,610.403,356.878z"/>
				</g>
			</g>
			<g>
				<path style="fill:#F2C3BA;" d="M563.485,314.223l-5.972-8.08l-0.494,0.741c-0.242,0.363-0.308,0.815-0.182,1.232l0.854,2.81
					l-12.1-4.188l6.979,11.295l6.247,1.516L563.485,314.223z"/>
				<g>
					<path style="fill:#FF4E50;" d="M626.877,295.389l-9.837,2.534l-26.47,22.164l-24.556-7.641l2.214-1.923l-5.682-1.397
						l-9.05,10.024l1.547,3.747l2.918-2.651l28.463,17.062c0,0,7.176,5.422,14.351-0.638c7.175-6.059,9.727-8.132,9.727-8.132
						l-2.392,20.41c0,0,11.64,7.813,23.599,6.378c11.959-1.435,15.627-7.016,15.627-7.016l-5.74-32.37l25.353,8.292v-7.494
						c0,0-0.638-3.189-11.959-8.451C643.669,303.026,631.453,295.406,626.877,295.389z"/>
					<g>
						<path style="fill:#A81E26;" d="M565.681,312.103l-8.052,7.801c-0.19,0.184-0.194,0.487-0.011,0.676
							c0.094,0.097,0.219,0.146,0.344,0.146c0.12,0,0.24-0.045,0.333-0.134l8.052-7.801c0.19-0.184,0.194-0.487,0.011-0.676
							C566.173,311.925,565.871,311.92,565.681,312.103z"/>
						<path style="fill:#A81E26;" d="M590.688,319.624c-0.252-0.067-0.514,0.088-0.58,0.344c-0.066,0.255,0.088,0.516,0.343,0.583
							c0.193,0.05,4.716,1.304,4.604,7.521c-0.005,0.264,0.206,0.482,0.47,0.487c0.003,0,0.006,0,0.008,0
							c0.261,0,0.474-0.208,0.478-0.47C596.137,321.095,590.743,319.638,590.688,319.624z"/>
						<path style="fill:#A81E26;" d="M610.502,329.018c0.122,0,0.243-0.046,0.336-0.138l9.086-8.983
							c0.879-0.836,5.264-5.107,5.173-7.073c-0.011-0.263-0.243-0.489-0.5-0.455c-0.263,0.012-0.467,0.235-0.455,0.5
							c0.054,1.186-2.963,4.515-4.885,6.341l-9.093,8.99c-0.188,0.186-0.19,0.489-0.004,0.676
							C610.255,328.97,610.378,329.018,610.502,329.018z"/>
						<path style="fill:#A81E26;" d="M645.947,346.726c-0.173-0.202-0.475-0.224-0.674-0.054
							c-12.537,10.68-34.36,1.299-34.578,1.202c-0.241-0.104-0.525,0.004-0.631,0.246c-0.106,0.242,0.004,0.524,0.246,0.631
							c0.143,0.063,9.226,3.971,19.166,3.971c5.699,0,11.683-1.287,16.418-5.32C646.093,347.228,646.118,346.927,645.947,346.726z"
							/>
						<path style="fill:#A81E26;" d="M641.595,316.421c0.03,0,0.061-0.003,0.092-0.008c0.259-0.051,0.429-0.301,0.379-0.561
							l-1.594-8.292c-0.049-0.26-0.298-0.426-0.561-0.379c-0.259,0.05-0.429,0.301-0.379,0.561l1.594,8.292
							C641.17,316.262,641.37,316.421,641.595,316.421z"/>
					</g>
				</g>
			</g>
			<g>
				<path style="fill:#460A31;" d="M562.304,457.306h32.614l-1.313-8.899c-0.28-1.899-1.91-3.306-3.829-3.306h-12.065
					C577.711,445.101,562.304,448.302,562.304,457.306z"/>
				<polygon style="fill:#F2C3BA;" points="593.639,437.826 590.251,445.101 578.611,445.101 582.528,433.479 				"/>
			</g>
			<g>
				<path style="fill:#460A31;" d="M624.449,457.306h32.614l-1.313-8.899c-0.28-1.899-1.91-3.306-3.829-3.306h-12.065
					C639.856,445.101,624.449,448.302,624.449,457.306z"/>
				<polygon style="fill:#F2C3BA;" points="640.639,445.101 651.801,445.101 651.801,442.231 639.842,442.231 				"/>
			</g>
		</g>
		<g>
			<g>
				<path style="fill:#1B6D65;" d="M547.882,380.893c-4.73-0.397-9.298,8.023-10.201,18.806c-0.792,9.447,1.491,17.573,5.249,19.708
					c-0.862,6.312-2.169,14.079-4.069,21.401c-2.847-8.547-3.541-32.378-3.673-48.284c4.128-1.321,7.876-8.975,8.77-18.515
					c1.009-10.774-2.004-19.866-6.73-20.309c-4.726-0.443-9.375,7.932-10.385,18.706c-1.005,10.727,1.979,19.785,6.67,20.299
					c0.143,17.337,0.977,43.912,4.643,50.696c-0.79,2.781-1.672,5.461-2.653,7.929c-0.169,0.427,0.039,0.911,0.466,1.08
					c0.101,0.04,0.205,0.059,0.307,0.059c0.331,0,0.643-0.198,0.773-0.524c1.038-2.611,1.965-5.453,2.792-8.399
					c0.008-0.026,0.017-0.052,0.022-0.079c2.217-7.918,3.711-16.578,4.671-23.536c0.024,0.003,0.048,0.008,0.073,0.01
					c4.73,0.396,9.298-8.023,10.201-18.806C555.714,390.352,552.612,381.289,547.882,380.893z"/>
				<path style="fill:#01AAA3;" d="M560.662,400.067c-4.194-2.223-11.702,3.726-16.769,13.287
					c-4.217,7.958-5.411,15.905-3.276,19.63c-1.42,2.974-2.804,6.184-3.888,9.338c-0.394-2.904-1.102-5.666-2.013-8.253
					c1.185-8.596-1.177-22.499-3.519-33.192c0.164-0.038,0.327-0.083,0.486-0.143c4.447-1.661,4.981-11.225,1.194-21.361
					c-3.787-10.136-10.462-17.007-14.908-15.346c-4.447,1.661-4.981,11.225-1.194,21.361c3.201,8.569,8.466,14.802,12.704,15.522
					c2.055,9.355,4.162,21.258,3.858,29.676c-0.674-1.521-1.407-2.963-2.166-4.324c3.247-3.331,0.161-12.239-7.021-20.104
					c-7.297-7.991-16.053-11.873-19.558-8.672c-3.505,3.201-0.432,12.273,6.865,20.264c6.557,7.181,14.29,11.04,18.335,9.427
					c2.982,5.374,5.497,12.089,5.62,19.585c-0.551,2.259-0.87,4.409-0.84,6.324c0.007,0.455,0.378,0.819,0.831,0.819
					c0.004,0,0.009,0,0.013,0c0.459-0.007,0.826-0.385,0.819-0.845c-0.081-5.187,2.625-12.39,5.587-18.687
					c0.157,0.117,0.319,0.226,0.493,0.318c4.194,2.223,11.702-3.726,16.769-13.287C564.148,411.843,564.856,402.29,560.662,400.067z
					"/>
			</g>
			<g>
				<path style="fill:#FF7063;" d="M548.121,457.279h-21.25c-9.38,0-16.983-7.604-16.983-16.984v-1.729h55.217v1.729
					C565.105,449.675,557.501,457.279,548.121,457.279z"/>
				
					<line style="fill:none;stroke:#BC413B;stroke-linecap:round;stroke-linejoin:round;stroke-miterlimit:10;" x1="512.49" y1="441.119" x2="562.358" y2="441.119"/>
			</g>
		</g>
		<path style="fill:#471B6D;" d="M83.661,270.618c0,1.367-1.108,2.475-2.475,2.475c-1.367,0-2.475-1.108-2.475-2.475
			c0-1.367,1.108-2.475,2.475-2.475C82.553,268.144,83.661,269.251,83.661,270.618z"/>
		<g>
			<circle style="fill:#471B6D;" cx="115.92" cy="275.587" r="1.968"/>
			<circle style="fill:#471B6D;" cx="71.091" cy="320.575" r="1.727"/>
			<path style="fill:#471B6D;" d="M227.171,64.983c0,1.801-1.46,3.262-3.262,3.262c-1.802,0-3.262-1.46-3.262-3.262
				c0-1.802,1.46-3.262,3.262-3.262C225.711,61.721,227.171,63.182,227.171,64.983z"/>
			<path style="fill:#471B6D;" d="M323.271,53.629c0,1.519-1.232,2.751-2.751,2.751c-1.519,0-2.751-1.232-2.751-2.751
				c0-1.519,1.232-2.751,2.751-2.751C322.039,50.878,323.271,52.11,323.271,53.629z"/>
			<path style="fill:#471B6D;" d="M352.544,83.184c0,2.207-1.789,3.996-3.996,3.996c-2.207,0-3.996-1.789-3.996-3.996
				c0-2.207,1.789-3.996,3.996-3.996C350.755,79.188,352.544,80.977,352.544,83.184z"/>
			<path style="fill:#471B6D;" d="M534.123,114.261c0,1.188-0.963,2.152-2.152,2.152c-1.188,0-2.152-0.963-2.152-2.152
				c0-1.188,0.963-2.152,2.152-2.152C533.16,112.109,534.123,113.073,534.123,114.261z"/>
			<path style="fill:#471B6D;" d="M648.524,139.308c0,1.01-0.819,1.829-1.829,1.829c-1.01,0-1.829-0.819-1.829-1.829
				c0-1.01,0.819-1.829,1.829-1.829C647.706,137.479,648.524,138.298,648.524,139.308z"/>
			<path style="fill:#471B6D;" d="M576.338,367.601c0,1.01-0.819,1.829-1.829,1.829c-1.01,0-1.829-0.819-1.829-1.829
				s0.819-1.829,1.829-1.829C575.519,365.772,576.338,366.591,576.338,367.601z"/>
			<path style="fill:#471B6D;" d="M676.811,393.596c0,1.01-0.819,1.829-1.829,1.829c-1.01,0-1.829-0.819-1.829-1.829
				c0-1.01,0.819-1.829,1.829-1.829C675.993,391.767,676.811,392.586,676.811,393.596z"/>
			<path style="fill:#471B6D;" d="M671.095,268.556c0,1.145-0.928,2.073-2.073,2.073c-1.145,0-2.073-0.928-2.073-2.073
				c0-1.145,0.928-2.073,2.073-2.073C670.167,266.483,671.095,267.411,671.095,268.556z"/>
		</g>
		<g>
			<g>
				<path style="fill:#682299;" d="M514.777,65.783c-7.391,0-13.405,6.013-13.405,13.404c0,7.391,6.013,13.405,13.405,13.405
					c7.391,0,13.404-6.013,13.404-13.405C528.182,71.797,522.169,65.783,514.777,65.783z M514.777,90.679
					c-6.337,0-11.491-5.155-11.491-11.491c0-6.336,5.155-11.491,11.491-11.491c6.336,0,11.491,5.155,11.491,11.491
					C526.268,85.524,521.114,90.679,514.777,90.679z"/>
				<g>
					<path style="fill:#682299;" d="M515.76,71.953v5.365c0,0.508,0.412,0.92,0.92,0.92h5.087c0.508,0,0.92,0.412,0.92,0.92l0,0
						c0,0.508-0.412,0.92-0.92,0.92h-5.087c-0.508,0-0.92,0.412-0.92,0.92v5.426c0,0.508-0.412,0.92-0.92,0.92h-0.122
						c-0.508,0-0.92-0.412-0.92-0.92v-5.426c0-0.508-0.412-0.92-0.92-0.92h-5.09c-0.508,0-0.92-0.412-0.92-0.92l0,0
						c0-0.508,0.412-0.92,0.92-0.92h5.09c0.508,0,0.92-0.412,0.92-0.92v-5.365c0-0.508,0.412-0.92,0.92-0.92h0.122
						C515.348,71.033,515.76,71.445,515.76,71.953z"/>
				</g>
			</g>
			<g>
				<path style="fill:#682299;" d="M668.141,220.217c0.585,0,1.17,0,1.755,0c0.488,0.074,0.979,0.128,1.462,0.225
					c5.38,1.071,9.424,5.919,9.54,11.41c0.049,2.305-0.529,4.438-1.637,6.452c-2.743,4.99-5.474,9.987-8.189,14.992
					c-0.396,0.731-0.888,1.284-1.716,1.482c-0.225,0-0.45,0-0.675,0c-0.708-0.187-1.227-0.59-1.585-1.247
					c-2.796-5.14-5.605-10.273-8.412-15.408c-1.309-2.394-1.789-4.935-1.421-7.647c0.629-4.645,4.132-8.657,8.664-9.846
					C666.652,220.439,667.403,220.352,668.141,220.217z M669.03,226.157c-2.673-0.004-4.861,2.167-4.871,4.831
					c-0.01,2.689,2.168,4.885,4.848,4.888c2.672,0.004,4.861-2.168,4.871-4.832C673.889,228.356,671.712,226.161,669.03,226.157z"/>
			</g>
			<g>
				<path style="fill:#682299;" d="M62.317,296.601c0-0.834,0-1.667,0-2.501c0.034-0.3,0.069-0.6,0.102-0.9
					c0.511-4.593,2.265-8.645,5.361-12.08c3.287-3.647,7.359-5.924,12.205-6.782c0.803-0.142,1.617-0.223,2.426-0.332
					c0.834,0,1.668,0,2.501,0c0.107,0.024,0.213,0.061,0.322,0.069c3.339,0.236,6.462,1.19,9.313,2.937
					c5.529,3.389,8.933,8.274,10.127,14.667c0.149,0.8,0.223,1.614,0.332,2.422c0,0.834,0,1.668,0,2.501
					c-0.034,0.3-0.069,0.6-0.102,0.9c-0.511,4.593-2.265,8.645-5.361,12.08c-3.287,3.647-7.359,5.924-12.205,6.782
					c-0.803,0.142-1.617,0.223-2.426,0.332c-0.834,0-1.668,0-2.501,0c-0.107-0.023-0.213-0.061-0.322-0.069
					c-3.339-0.236-6.463-1.19-9.313-2.937c-5.529-3.389-8.933-8.274-10.127-14.667C62.499,298.223,62.425,297.409,62.317,296.601z
					 M101.691,295.356c0.007-9.941-8.056-18.014-18.013-18.035c-9.929-0.021-18.01,8.042-18.046,18.003
					c-0.035,9.937,8.081,18.062,18.034,18.056C93.616,313.374,101.683,305.307,101.691,295.356z"/>
				<path style="fill:#682299;" d="M82.002,290.517c0-1.625-0.014-3.251,0.005-4.877c0.014-1.253,1.153-2.048,2.264-1.611
					c0.675,0.266,1.049,0.875,1.05,1.733c0.003,2.751,0.016,5.502-0.013,8.253c-0.005,0.492,0.156,0.771,0.539,1.051
					c1.781,1.305,3.538,2.644,5.306,3.967c0.615,0.46,0.906,1.054,0.715,1.814c-0.286,1.136-1.574,1.606-2.553,0.93
					c-0.617-0.426-1.205-0.893-1.805-1.343c-1.522-1.141-3.033-2.298-4.572-3.417c-0.656-0.477-0.955-1.067-0.943-1.874
					C82.018,293.602,82.001,292.059,82.002,290.517z"/>
			</g>
			<g>
				<rect x="255.381" y="65.839" style="fill:#89CEB5;" width="47.171" height="26.699"/>
				<polygon style="fill:#57937C;" points="255.381,92.537 277.905,73.799 302.552,92.537 				"/>
				<polygon style="fill:#9BEACC;" points="255.381,65.839 277.905,79.67 302.552,65.839 				"/>
			</g>
		</g>
		
			<line style="fill:none;stroke:#160812;stroke-width:2;stroke-linecap:round;stroke-linejoin:round;stroke-miterlimit:10;" x1="32.636" y1="458.255" x2="709.365" y2="458.255"/>
	</g>
</g>
</svg>
